<?xml version="1.0" encoding="utf-8"?>
<!-- Generator: Adobe Illustrator 21.1.0, SVG Export Plug-In . SVG Version: 6.00 Build 0)  -->
<svg version="1.1" id="Layer_1" xmlns="http://www.w3.org/2000/svg" xmlns:xlink="http://www.w3.org/1999/xlink" x="0px" y="0px"
	 viewBox="0 0 328 80" style="enable-background:new 0 0 328 80;" xml:space="preserve">
<style type="text/css">
	.st0{fill:#BC0032;}
</style>
<title>Layer 1</title>
<path class="st0" d="M210.5,0c-1.7,0-3,0.9-4.1,2.1c-6.4,7.1-11.1,25.7-11.3,35.4c-2.3,3.4-5,11.7-9.8,11.7
	c-7.4,0-0.4-16.9-8.3-16.9c-4,0-8.2,4.7-10.6,7.6c0.1-2.3,0.9-12.8-2.4-12.8c-1.5,0-2.4,1.4-2.4,2.8c0,2.7,0.6,5.3,0.6,8
	c0,0.2,0,0.5,0,0.7c-1.9,3.1-4.2,8.8-9.2,8.8c-3.4,0-4-3.4-4-6.1c0-2.3,0.8-8.3,2.3-9.9c0.6-0.6,1.1-1.5,1.1-2.4
	c0-0.9-0.6-2.1-1.6-2.1c-1.6,0-2.6,1.8-2.9,3.1c-0.4,1.7-4.7,4.9-6.4,4.9h-0.6c-0.1-0.2,2.3-7.1,2.3-9.5c0-0.9-0.6-2-1.6-2
	c-3.1,0-5.3,8.5-5.3,10.9c0,0.8,0.1,1.7,0.5,2.5c0,0.1-0.1,0.2-0.1,0.3c-2.1,2.5-6.2,8.5-12.5,8.5c-3.9,0-6.2-2.7-6.8-6.4
	c5.8,0.4,11.9-5.3,11.9-11.1c0-2.9-1.6-5.1-4.6-5.1c-6.7,0-10.7,8.1-11,14.1c-2.3,2.6-5.8,8.8-10.8,8.8c-3.3,0-5.8-4.8-5.8-7.6
	c0-0.3,0.1-0.5,0.2-0.8c2.9-5.5,5.9-10.4,7.9-16.4h7.6c0.8,0,1.4-0.6,1.4-1.4c0-0.8-0.5-1.2-1.2-1.3c-2.3-0.4-4.8-0.4-7.1-0.5
	c0.3-1.5,0.4-3,0.4-4.6c0-2.4-0.3-7.9-3.5-7.9c-4.2,0-7.3,9.1-8.2,12.4c-0.7,0-5-0.1-8.8,0c0.3-1.4,0.4-3,0.4-4.5
	c0-2.4-0.3-7.9-3.6-7.9c-4.2,0-7.3,9.1-8.1,12.4c-1.6-0.1-6.9-0.8-6.9,1.6c0,2,4.8,1.7,6.2,1.8c-0.7,3.8-1.1,7.9-1.1,11.8
	c0,1.5,0.1,3.3,0.3,5.2c-1.7,3.5-3.6,9.2-8.5,9.2c-4.2,0-5.2-6-5.2-9.1c0-1.9,0.7-3.8,0.7-5.6c0-0.7-0.4-1.4-1-1.8
	c0.5-0.4,0.8-1.1,0.8-1.7c0-2.3-3-3.4-4.8-3.4c-5.1,0-10.6,5.3-13.8,10.9c0,0,0,0-0.1,0.1c-0.1,0.1-0.1,0.1-0.2,0.2
	c-2.6,2.5-4.7,4.9-8,6.5c1.6-1.9,2.2-4.5,2.2-7c0-6-3.7-10.6-10-10.6c-4.6,0-9.1,2.6-12.5,5.6c0-1.7,0.1-11.4-2.3-11.4
	C8.8,20,8,21.4,8,22.5c0,1.9,0.8,4,0.9,6c0.1,2,0.2,3.8,0.2,5.7c0,0.5,0.1,1.7-0.2,2.2c-0.7,1.4-1.7,2.7-2.4,4.2
	C3.5,46.9,2,54.4,2,61.4c0,5,1.1,13.2,5,16.9C7.5,78.7,8.1,79,8.8,79c1.4,0,2-1,2.4-2.2c1.4-4.4,1.3-25.2,1.4-30.6
	c3.1,1.6,6.9,2.4,10.4,2.4c5,0,11-1.8,15.4-5.1c-0.1,0.6-0.2,1.2-0.2,1.8c0,4.4,3.3,8,7.8,8c4.7,0,8.6-4.1,10.6-8
	c1.3,3,3.7,5.4,7.1,5.4c4.3,0,8-3.2,10.2-7c1.2,3.5,3.5,6.2,7.6,6.2c4.4,0,9-4,12.1-7.9c1.1,4.3,3.4,7.9,8.1,7.9
	c4.5,0,9.3-4.2,12.3-8.3c1.2,4.3,4.4,7.6,9.4,7.6c6,0,12.6-5.6,15.3-10.8c0.1-0.1,0.3-0.1,0.4-0.2c3.1,0.2,4.5-0.7,7.1-2.4
	c-0.4,2.4-0.7,4.6-0.7,7c0,4.1,1.1,8.3,6.1,8.3c3.5,0,6.8-2.1,9.3-5c-0.1,0.3-0.3,0.6-0.5,0.8c-0.3,0.4-0.5,0.7-0.5,1.2
	c0,0.9,0.8,2.1,1.8,2.1c1.9,0,9.1-14.2,14-14.2c3.6,0-1.6,17.2,8.6,17.2c4.3,0,8.5-5,11.1-9.6c0.8,4.7,2.8,9.4,7.8,9.4
	c5.7,0,9.6-5.4,11.7-10.1c0.9,0.2,1.8,0.3,2.7,0.3c1.9,0,3.9-0.4,5.7-1.3c-0.3,1.2-0.5,2.4-0.5,3.5c0,4.4,3.4,7.9,7.9,7.9
	c4.7,0,8.5-4.1,10.6-8c1.3,3,3.7,5.4,7.2,5.4c2.7,0,5.1-1.2,7.1-3.1c-0.1,0.2-0.1,0.4-0.1,0.6c0,0.9,0.8,2.1,1.8,2.1
	c1.9,0,9-14.2,14-14.2c3.6,0-1.5,17.2,8.7,17.2c3.4,0,6.6-3,9.1-6.5v0.1c0,1.6,0.3,7.7,2.7,7.7c2.1,0,2.4-2.1,2.4-3.8
	c0-4.6-0.1-9.3,0.4-14c0.4-3.5,4.5-14.6,8.6-14.9l0.6-0.1c3.6-0.2,4.9,3.8,4.9,7.3c0,3-2.7,9.8-6.5,9.8c-2.6,0-2-3.8-4.2-3.8
	c-1.1,0-2.6,1-2.6,2.2c0,0.3,0.1,0.6,0.2,0.8c2.8,6,7.9,12.1,15,12.1c7,0,12.2-5.6,15.5-11.2c0.2-0.3,0.3-0.6,0.3-1
	c0-0.8-0.5-1.6-1.4-1.6c-1.5,0-6.9,10.1-14.3,10.1c-3.1,0-5.8-2-7.5-4.4c4.4-0.5,9.4-9.1,9.4-13.7c0-4.7-2.9-9.8-7.7-9.8
	c-4.3,0-7.8,4.1-9.8,7.6v-0.6c-0.1-5.4,0.9-10.9,0.9-16.3c0-1.5,0.3-7-2.1-7c-1.3,0-2,1.1-2,2.3c0,2.1,0.5,4.2,0.4,6.3v1.5
	c-0.2,5.3-0.8,10.5-1.2,15.7c-0.1,2.5,0,5-0.3,7.5c-0.1,1-0.3,1.9-0.4,2.7c-2.2,3.6-4.9,11.1-9.5,11.1c-7.4,0-0.4-16.9-8.3-16.9
	c-4,0-8.1,4.7-10.6,7.6c0.1-2.3,0.9-12.8-2.4-12.8c-1.5,0-2.4,1.4-2.4,2.8c0,2.7,0.6,5.3,0.6,8c-1.7,3.4-3.7,9.4-8.6,9.4
	c-4.2,0-5.2-6-5.2-9.1c0-1.9,0.7-3.8,0.7-5.6c0-0.7-0.4-1.4-1-1.8c0.5-0.4,0.8-1.1,0.8-1.7c0-2.3-3-3.4-4.8-3.4
	c-5.1,0-10.5,5.1-13.7,10.7c-1.4,1.1-3.3,3.8-7.9,3.8c-0.7,0-1.4-0.1-2.1-0.2c0.2-1.2,0.4-2.3,0.4-3.5c0-3.1-1.2-8-5.2-8
	c-2.9,0-4.3,2.4-4.3,5c0,3.6,2.5,6.5,5.4,8.3c-1,2.8-4.4,7.5-7.7,7.5c-4.4,0-5.6-7.4-5.6-10.6v-0.5C206,31.3,216,19,216,8.4
	C216,4.9,214.8,0,210.5,0L210.5,0z M209.7,3.9c0.1,0,0.1,0,0.2,0c2.2,0,2.5,3.2,2.5,4.7c0,9.3-7.4,19.4-13.8,25.6
	c1-7.2,4.7-24,9.8-29.3C208.7,4.6,209.2,4,209.7,3.9z M81.8,9.6c0.6,0.8,0.8,2.9,0.8,4c0,1.3-0.2,2.7-0.6,4l-4.2-0.1
	C78.5,15.3,80.2,11.2,81.8,9.6L81.8,9.6z M102,9.6c0.6,0.8,0.8,2.9,0.8,4c0,1.3-0.2,2.7-0.6,4L98,17.5C98.6,15.3,100.3,11.2,102,9.6
	L102,9.6z M92.7,20.8c0.4,0,0.9,0.1,1.1,0.1c-0.7,3.8-1.1,7.9-1.1,11.8c0,1.4,0.1,3,0.2,4.7c-2.3,2.8-5.7,8.2-10.4,8.2
	c-3.3,0-5.8-4.8-5.8-7.6c0-0.3,0.1-0.5,0.2-0.8c2.8-5.5,5.9-10.4,7.8-16.4h7.7C92.6,20.8,92.7,20.8,92.7,20.8L92.7,20.8z M76.9,20.9
	H81c-1.4,4.1-3,8.2-5.1,11.9c-0.1-0.9-0.1-1.9-0.1-2.8C75.8,27,76.3,24,76.9,20.9L76.9,20.9z M97.1,20.9h4.1
	c-1.4,4.1-2.9,8.2-5.1,11.9C96,32,96,31,96,30.1C96,27,96.5,24,97.1,20.9L97.1,20.9z M123.8,25.9c1.4,0,2.2,2.1,2.2,3.3
	c0,3.1-3.6,6.4-6.7,6.4c-0.7,0-1.4-0.1-2-0.4C117.5,31.8,119.7,25.9,123.8,25.9L123.8,25.9z M53.8,29.4c1.3,0,1.9,0.5,3,1.3
	c-1.4,0.8-1.7,3-1.7,4.5c0,1.1,0.3,2.2,0.3,3.3c0,4.5-3.9,11.2-8.9,11.2c-3,0-4.7-2.1-4.7-4.9C41.8,39.7,48.7,29.4,53.8,29.4
	L53.8,29.4z M238.6,29.4c1.3,0,1.9,0.5,3,1.3c-1.4,0.8-1.7,3-1.7,4.5c0,1.1,0.3,2.2,0.3,3.3c0,4.5-3.9,11.2-8.9,11.2
	c-2.9,0-4.7-2.1-4.7-4.9C226.6,39.7,233.4,29.4,238.6,29.4L238.6,29.4z M23.6,29.5c5,0,7.4,4.7,7.4,9.2c0,5.1-5.8,6.3-9.8,6.3
	c-2.9,0-5.9-0.9-8.2-2.9c-0.8-0.8-0.6-3.1-0.6-4.3C12.4,33.4,19.6,29.5,23.6,29.5L23.6,29.5z M210.7,32c1.8,0,2.4,2.9,2.4,4.3
	c0,0.7-0.1,1.4-0.2,2.1c-1.7-1.2-3-2.9-3-5C209.9,33,210.2,32.3,210.7,32L210.7,32z M9,43.6c0.2,0,0.6,1.2,0.6,1.4
	c0,5.2,0,24.6-1,28.3c-2.9-2.2-3.3-10.1-3.3-13.6C5.3,57.4,7,43.6,9,43.6L9,43.6z"/>
</svg>
